<?xml version="1.0" encoding="UTF-8"?>
<svg width="240px" height="60px" viewBox="0 0 240 60" version="1.1" xmlns="http://www.w3.org/2000/svg" xmlns:xlink="http://www.w3.org/1999/xlink">
    <!-- Generator: Sketch 50.2 (55047) - http://www.bohemiancoding.com/sketch -->
    <title>logo</title>
    <desc>Created with Sketch.</desc>
    <defs></defs>
    <g id="logo" stroke="none" stroke-width="1" fill="none" fill-rule="evenodd">
        <path d="M84.0764998,30.593 C86.4134998,31.372 88.0124998,33.135 88.0124998,36.292 C88.0124998,41.171 84.3634998,44.082 77.5164998,44.082 C74.1954998,44.082 70.9974998,44.041 69.4804998,44 C67.3074998,44 65.9954998,42.565 65.9954998,39.982 L65.9954998,19.236 C65.9954998,16.94 67.1434998,15.464 69.1114998,15.3 C70.9564998,15.013 73.9494998,14.972 76.6144998,14.972 C84.2814998,14.972 88.0124998,18.129 88.0124998,24.033 C88.0124998,27.272 85.9624998,29.691 84.0764998,30.593 Z M76.5734998,20.548 C74.8514998,20.548 73.5394998,20.589 72.3094998,20.63 L72.3094998,28.625 L76.9424998,28.625 C79.3614998,28.625 81.6984998,27.395 81.6984998,24.525 C81.6984998,21.942 79.6484998,20.589 76.5734998,20.548 Z M77.4754998,39.039 C80.1404998,39.039 81.9034998,38.178 81.9034998,36.128 C81.9034998,34.324 80.4274998,33.299 77.6804998,33.299 L72.3094998,33.299 L72.3094998,38.998 C73.6624998,39.039 75.4254998,39.039 77.4754998,39.039 Z M103.5635,23.787 C104.4245,24.238 105.1625,25.099 105.1625,26.329 C105.1625,28.215 104.0145,29.24 102.7435,29.24 C101.9645,29.24 101.4315,28.83 100.2425,28.83 C98.4794999,28.83 97.0854999,30.265 97.0444999,32.315 L97.0444999,40.556 C97.0444999,42.77 95.7734999,44 93.8054999,44 C91.8784999,44 90.7714999,42.77 90.7714999,40.556 L90.7714999,26.821 C90.7714999,24.73 91.8784999,23.459 93.7644999,23.459 C94.9534999,23.459 95.9784999,24.238 96.3884999,25.509 C97.4954999,24.115 99.0534999,23.213 100.6935,23.213 C102.0875,23.213 102.9075,23.459 103.5635,23.787 Z M115.0145,23.131 C120.8775,23.131 124.4855,26.698 124.4855,33.053 C124.4855,33.586 124.4445,34.242 124.3215,34.816 C124.1575,35.759 123.7065,36.456 122.1895,36.456 L111.1605,36.415 C111.8985,38.342 113.5385,39.367 115.7115,39.367 C117.0645,39.367 118.2125,38.998 119.0325,38.547 C119.5245,38.301 119.8935,38.178 120.5085,38.178 C122.2305,38.178 122.8865,39.326 122.8865,40.474 C122.8865,41.622 122.1485,42.319 121.1235,42.934 C119.6475,43.877 117.5155,44.369 115.2605,44.369 C109.3565,44.369 104.9285,40.392 104.9285,33.668 C104.9285,27.026 109.2335,23.131 115.0145,23.131 Z M115.0145,28.379 C112.7595,28.379 111.2015,29.527 110.7915,32.274 L118.9095,32.274 C118.7865,29.773 117.5565,28.379 115.0145,28.379 Z M134.2145,44.533 C131.6315,44.533 129.7455,43.344 129.0075,40.884 C127.7365,36.538 126.7115,33.094 125.6865,28.748 C125.4405,27.764 125.3585,26.985 125.3585,26.534 C125.3585,24.648 126.7935,23.541 128.7205,23.541 C130.1965,23.541 131.4265,24.279 131.8365,26.78 C132.4925,30.552 132.9025,33.586 133.7225,37.317 C133.7635,37.809 133.9685,38.055 134.2145,38.055 C134.3785,38.055 134.5425,37.85 134.6655,37.358 C135.5675,33.709 136.2235,30.798 137.0435,27.477 C137.6175,24.935 139.2575,23.828 141.4715,23.828 C143.7265,23.828 145.5305,24.935 146.1455,27.477 C146.9655,30.798 147.7035,33.668 148.5645,37.317 C148.6875,37.768 148.8515,38.055 149.0975,38.055 C149.3025,38.055 149.4665,37.768 149.5485,37.235 C150.3275,33.545 150.6965,30.511 151.3525,26.903 C151.6805,24.689 152.6645,23.541 154.5095,23.541 C156.3955,23.541 157.6665,24.648 157.6665,26.37 C157.6665,26.862 157.5435,27.764 157.2975,28.707 C156.1905,33.053 155.2885,36.538 153.9765,40.884 C153.2385,43.385 151.5985,44.533 149.0975,44.533 C146.9245,44.533 144.9975,43.672 144.2185,40.966 C143.4395,38.219 142.6605,35.185 142.0045,32.602 C141.7995,31.905 141.6765,31.618 141.4715,31.618 C141.2255,31.618 141.1025,31.905 140.9385,32.602 C140.2415,35.185 139.6265,38.219 138.8885,41.007 C138.1095,43.672 136.3055,44.533 134.2145,44.533 Z M185.0375,30.593 C187.3745,31.372 188.9735,33.135 188.9735,36.292 C188.9735,41.171 185.3245,44.082 178.4775,44.082 C175.1565,44.082 171.9585,44.041 170.4415,44 C168.2685,44 166.9565,42.565 166.9565,39.982 L166.9565,19.236 C166.9565,16.94 168.1045,15.464 170.0725,15.3 C171.9175,15.013 174.9105,14.972 177.5755,14.972 C185.2425,14.972 188.9735,18.129 188.9735,24.033 C188.9735,27.272 186.9235,29.691 185.0375,30.593 Z M177.5345,20.548 C175.8125,20.548 174.5005,20.589 173.2705,20.63 L173.2705,28.625 L177.9035,28.625 C180.3225,28.625 182.6595,27.395 182.6595,24.525 C182.6595,21.942 180.6095,20.589 177.5345,20.548 Z M178.4365,39.039 C181.1015,39.039 182.8645,38.178 182.8645,36.128 C182.8645,34.324 181.3885,33.299 178.6415,33.299 L173.2705,33.299 L173.2705,38.998 C174.6235,39.039 176.3865,39.039 178.4365,39.039 Z M201.4085,44.328 C195.2585,44.328 190.9535,40.515 190.9535,33.791 C190.9535,27.19 195.2585,23.295 201.4085,23.295 C207.5995,23.295 211.9455,27.19 211.9455,33.791 C211.9455,40.515 207.5995,44.328 201.4085,44.328 Z M201.4495,38.998 C204.0735,38.998 205.6725,37.071 205.6725,33.791 C205.6725,30.429 204.0735,28.584 201.4495,28.584 C198.8255,28.584 197.2265,30.429 197.2265,33.791 C197.2265,37.071 198.8255,38.998 201.4495,38.998 Z M226.8405,28.584 L222.7815,28.584 L222.7815,36.538 C222.7815,37.932 223.4785,38.793 224.3805,38.793 C224.9545,38.793 225.4875,38.711 225.8155,38.588 C226.1435,38.506 226.3075,38.506 226.6765,38.506 C227.7015,38.506 228.6035,39.326 228.6035,40.966 C228.6035,42.319 227.7015,43.098 226.9225,43.426 C225.7335,43.918 224.5445,44.082 223.1505,44.082 C218.9275,44.082 216.4675,41.827 216.4675,37.44 L216.4675,28.584 L214.7865,28.584 C213.5975,28.584 212.3265,27.805 212.3265,26.206 C212.3265,24.361 213.5975,23.828 214.7865,23.828 L216.4675,23.828 L216.4675,22.147 C216.4675,20.056 217.8205,18.662 219.7065,18.662 C221.5925,18.662 222.7815,20.015 222.7815,22.147 L222.7815,23.828 L226.8405,23.828 C228.3575,23.828 229.3005,24.894 229.3005,26.206 C229.3005,27.477 228.3575,28.584 226.8405,28.584 Z" id="Brew-Bot" fill="#000000"></path>
        <rect id="Rectangle" fill="#DE0F6C" x="11" y="10" width="40" height="40" rx="4"></rect>
        <path d="M25,20 L25,22 L22,22 C20.346,22 19,23.346 19,25 L19,31 C19,32.654 20.346,34 22,34 L25,34 L25,36 C25,38.209 26.791,40 29,40 L39,40 C41.209,40 43,38.209 43,36 L43,20 L25,20 Z M25,32 L22,32 C21.448,32 21,31.551 21,31 L21,25 C21,24.449 21.448,24 22,24 L25,24 L25,32 Z M39.959,28.654 C39.476,31.471 36.987,33.462 34,34.955 C31.013,33.462 28.525,31.471 28.041,28.654 C27.739,26.897 29.128,25.213 30.9,25.02 C32.203,24.878 33.368,25.513 34,26.517 C34.632,25.513 35.796,24.878 37.099,25.02 C38.872,25.212 40.26,26.897 39.959,28.654 Z" id="mug-heart" fill="#FFFFFF" fill-rule="nonzero"></path>
    </g>
</svg>