<?xml version="1.0" encoding="UTF-8"?>
<svg width="355px" height="60px" viewBox="0 0 355 60" version="1.1" xmlns="http://www.w3.org/2000/svg" xmlns:xlink="http://www.w3.org/1999/xlink">
    <!-- Generator: Sketch 50.2 (55047) - http://www.bohemiancoding.com/sketch -->
    <title>logo</title>
    <desc>Created with Sketch.</desc>
    <defs></defs>
    <g id="logo" stroke="none" stroke-width="1" fill="none" fill-rule="evenodd">
        <rect id="Rectangle" fill="#DE0F6C" x="11" y="10" width="40" height="40" rx="4"></rect>
        <path d="M25,20 L25,22 L22,22 C20.346,22 19,23.346 19,25 L19,31 C19,32.654 20.346,34 22,34 L25,34 L25,36 C25,38.209 26.791,40 29,40 L39,40 C41.209,40 43,38.209 43,36 L43,20 L25,20 Z M25,32 L22,32 C21.448,32 21,31.551 21,31 L21,25 C21,24.449 21.448,24 22,24 L25,24 L25,32 Z M39.959,28.654 C39.476,31.471 36.987,33.462 34,34.955 C31.013,33.462 28.525,31.471 28.041,28.654 C27.739,26.897 29.128,25.213 30.9,25.02 C32.203,24.878 33.368,25.513 34,26.517 C34.632,25.513 35.796,24.878 37.099,25.02 C38.872,25.212 40.26,26.897 39.959,28.654 Z" id="mug-heart" fill="#FFFFFF" fill-rule="nonzero"></path>
        <path d="M84.2764996,16.259 C85.9574996,16.259 87.0234996,17.202 87.0234996,19.17 C87.0234996,21.056 86.2034996,22.081 84.2764996,22.081 L78.6594996,22.081 L78.6594996,41.269 C78.6594996,43.893 77.6754996,45 75.3384996,45 C73.4524996,45 72.0994996,43.565 72.0994996,41.269 L72.0994996,22.081 L66.3594996,22.081 C64.8014996,22.081 63.6944996,21.056 63.6944996,19.17 C63.6944996,17.202 64.4734996,16.259 66.3594996,16.259 L84.2764996,16.259 Z M102.7385,40.695 C103.0665,41.269 103.4355,41.884 103.4355,42.581 C103.4355,43.893 102.0825,45.246 100.3605,45.246 C99.4584997,45.246 98.8844997,44.918 98.3514997,44.344 C97.9004997,43.893 97.6134997,43.524 97.4084997,42.581 C96.2194997,44.221 93.6774997,45.369 91.2584997,45.369 C87.1994997,45.369 84.2064997,43.237 84.2064997,39.711 C84.2064997,36.431 86.4614997,33.561 93.8004997,33.561 C94.7844997,33.561 95.3174997,33.561 96.3014997,33.643 L96.3014997,32.7 C96.3014997,30.24 94.7844997,29.174 92.5294997,29.174 C90.7254997,29.174 89.7414997,29.912 88.8394997,30.855 C88.3064997,31.511 87.6094997,32.085 86.4204997,32.085 C84.9854997,32.085 83.9194997,31.183 83.9194997,29.625 C83.9194997,26.919 86.9534997,23.926 92.7754997,23.926 C99.4994997,23.926 101.9185,27.288 101.9185,31.47 C101.9185,33.397 101.7545,35.57 101.7545,36.8 C101.7545,39.055 102.0825,39.793 102.7385,40.695 Z M91.7914997,40.9 C93.9234997,40.9 95.9734997,39.383 96.2194997,37.62 C95.5634997,37.579 94.9484997,37.538 93.8824997,37.538 C90.0284997,37.538 89.2084997,38.399 89.2084997,39.465 C89.2084997,40.326 90.1104997,40.9 91.7914997,40.9 Z M116.2395,24.295 C121.4465,24.295 125.6285,28.026 125.6285,34.668 C125.6285,41.515 121.4465,45.246 116.3215,45.246 C114.3945,45.246 112.8775,44.713 111.6065,43.934 L111.6065,51.642 C111.6065,53.733 110.5405,55.086 108.4495,55.086 C106.5225,55.086 105.2925,53.733 105.2925,51.642 L105.2925,27.985 C105.2925,25.689 106.3585,24.459 108.2035,24.459 C109.5565,24.459 110.3765,25.115 110.7865,26.304 C112.1805,25.115 113.9845,24.295 116.2395,24.295 Z M115.4195,40.039 C117.8795,40.039 119.3555,38.03 119.3555,34.668 C119.3555,31.47 117.8795,29.584 115.4195,29.584 C113.2055,29.584 111.6065,31.429 111.6065,33.52 L111.6065,36.349 C111.6065,38.399 113.2055,40.039 115.4195,40.039 Z M158.7395,40.244 C159.2315,41.023 159.3545,41.638 159.3545,42.048 C159.3545,43.975 157.6735,45 156.1975,45 C154.2705,45 153.4915,43.934 152.5895,42.253 L150.7855,39.014 C150.0885,37.743 148.8585,36.554 147.0955,36.554 L142.3395,36.554 L142.3395,41.843 C142.3395,43.893 141.2325,45 139.0595,45 C137.0095,45 135.8205,43.893 135.8205,41.843 L135.8205,19.58 C135.8205,17.571 137.0095,16.587 139.0595,16.341 L139.1415,16.341 C140.6585,16.177 143.7745,15.972 146.9315,15.972 C155.0905,15.972 159.1085,19.58 159.1085,25.935 C159.1085,30.609 156.5255,32.905 153.9015,34.053 C154.9265,34.34 155.6645,35.037 156.6075,36.636 L158.7395,40.244 Z M146.3575,31.511 C150.5395,31.511 152.9585,29.953 152.9585,26.468 C152.9585,23.516 150.9085,21.671 146.7265,21.671 C145.0045,21.671 143.5695,21.671 142.3395,21.712 L142.3395,31.511 L146.3575,31.511 Z M170.8465,24.131 C176.7095,24.131 180.3175,27.698 180.3175,34.053 C180.3175,34.586 180.2765,35.242 180.1535,35.816 C179.9895,36.759 179.5385,37.456 178.0215,37.456 L166.9925,37.415 C167.7305,39.342 169.3705,40.367 171.5435,40.367 C172.8965,40.367 174.0445,39.998 174.8645,39.547 C175.3565,39.301 175.7255,39.178 176.3405,39.178 C178.0625,39.178 178.7185,40.326 178.7185,41.474 C178.7185,42.622 177.9805,43.319 176.9555,43.934 C175.4795,44.877 173.3475,45.369 171.0925,45.369 C165.1885,45.369 160.7605,41.392 160.7605,34.668 C160.7605,28.026 165.0655,24.131 170.8465,24.131 Z M170.8465,29.379 C168.5915,29.379 167.0335,30.527 166.6235,33.274 L174.7415,33.274 C174.6185,30.773 173.3885,29.379 170.8465,29.379 Z M188.8985,41.351 C188.8985,43.934 187.9555,45 185.7415,45 C183.8145,45 182.5845,43.565 182.5845,41.351 L182.5845,16.915 C182.5845,14.701 183.8145,13.266 185.7415,13.266 C187.9555,13.266 188.8985,14.701 188.8985,16.915 L188.8985,41.351 Z M201.2515,24.131 C207.1145,24.131 210.7225,27.698 210.7225,34.053 C210.7225,34.586 210.6815,35.242 210.5585,35.816 C210.3945,36.759 209.9435,37.456 208.4265,37.456 L197.3975,37.415 C198.1355,39.342 199.7755,40.367 201.9485,40.367 C203.3015,40.367 204.4495,39.998 205.2695,39.547 C205.7615,39.301 206.1305,39.178 206.7455,39.178 C208.4675,39.178 209.1235,40.326 209.1235,41.474 C209.1235,42.622 208.3855,43.319 207.3605,43.934 C205.8845,44.877 203.7525,45.369 201.4975,45.369 C195.5935,45.369 191.1655,41.392 191.1655,34.668 C191.1655,28.026 195.4705,24.131 201.2515,24.131 Z M201.2515,29.379 C198.9965,29.379 197.4385,30.527 197.0285,33.274 L205.1465,33.274 C205.0235,30.773 203.7935,29.379 201.2515,29.379 Z M230.9065,40.695 C231.2345,41.269 231.6035,41.884 231.6035,42.581 C231.6035,43.893 230.2505,45.246 228.5285,45.246 C227.6265,45.246 227.0525,44.918 226.5195,44.344 C226.0685,43.893 225.7815,43.524 225.5765,42.581 C224.3875,44.221 221.8455,45.369 219.4265,45.369 C215.3675,45.369 212.3745,43.237 212.3745,39.711 C212.3745,36.431 214.6295,33.561 221.9685,33.561 C222.9525,33.561 223.4855,33.561 224.4695,33.643 L224.4695,32.7 C224.4695,30.24 222.9525,29.174 220.6975,29.174 C218.8935,29.174 217.9095,29.912 217.0075,30.855 C216.4745,31.511 215.7775,32.085 214.5885,32.085 C213.1535,32.085 212.0875,31.183 212.0875,29.625 C212.0875,26.919 215.1215,23.926 220.9435,23.926 C227.6675,23.926 230.0865,27.288 230.0865,31.47 C230.0865,33.397 229.9225,35.57 229.9225,36.8 C229.9225,39.055 230.2505,39.793 230.9065,40.695 Z M219.9595,40.9 C222.0915,40.9 224.1415,39.383 224.3875,37.62 C223.7315,37.579 223.1165,37.538 222.0505,37.538 C218.1965,37.538 217.3765,38.399 217.3765,39.465 C217.3765,40.326 218.2785,40.9 219.9595,40.9 Z M241.6605,45.246 C238.7495,45.246 236.4945,44.549 234.8955,43.483 C233.9935,42.909 233.1735,42.212 233.1735,40.982 C233.1735,39.629 234.1575,38.727 235.4695,38.727 C236.2485,38.727 236.8225,39.014 237.5605,39.424 C238.9955,40.244 240.5535,40.654 242.2345,40.654 C243.9565,40.654 244.8585,40.244 244.8585,39.547 C244.8585,37.005 232.6815,39.629 232.6815,31.101 C232.6815,27.001 236.0435,24.172 241.8245,24.172 C246.1295,24.172 248.5895,25.771 249.9015,27.739 C250.3115,28.313 250.6395,28.969 250.6395,29.83 C250.6395,31.347 249.6965,32.372 248.3025,32.372 C247.1955,32.372 246.6625,31.716 245.9655,31.06 C245.3095,30.281 244.4895,29.051 241.3735,29.051 C238.9955,29.051 237.9705,29.789 237.9705,30.896 C237.9705,34.586 250.0245,31.88 250.0245,39.219 C250.0245,42.95 246.9495,45.246 241.6605,45.246 Z M262.0085,24.131 C267.8715,24.131 271.4795,27.698 271.4795,34.053 C271.4795,34.586 271.4385,35.242 271.3155,35.816 C271.1515,36.759 270.7005,37.456 269.1835,37.456 L258.1545,37.415 C258.8925,39.342 260.5325,40.367 262.7055,40.367 C264.0585,40.367 265.2065,39.998 266.0265,39.547 C266.5185,39.301 266.8875,39.178 267.5025,39.178 C269.2245,39.178 269.8805,40.326 269.8805,41.474 C269.8805,42.622 269.1425,43.319 268.1175,43.934 C266.6415,44.877 264.5095,45.369 262.2545,45.369 C256.3505,45.369 251.9225,41.392 251.9225,34.668 C251.9225,28.026 256.2275,24.131 262.0085,24.131 Z M262.0085,29.379 C259.7535,29.379 258.1955,30.527 257.7855,33.274 L265.9035,33.274 C265.7805,30.773 264.5505,29.379 262.0085,29.379 Z M299.7115,31.593 C302.0485,32.372 303.6475,34.135 303.6475,37.292 C303.6475,42.171 299.9985,45.082 293.1515,45.082 C289.8305,45.082 286.6325,45.041 285.1155,45 C282.9425,45 281.6305,43.565 281.6305,40.982 L281.6305,20.236 C281.6305,17.94 282.7785,16.464 284.7465,16.3 C286.5915,16.013 289.5845,15.972 292.2495,15.972 C299.9165,15.972 303.6475,19.129 303.6475,25.033 C303.6475,28.272 301.5975,30.691 299.7115,31.593 Z M292.2085,21.548 C290.4865,21.548 289.1745,21.589 287.9445,21.63 L287.9445,29.625 L292.5775,29.625 C294.9965,29.625 297.3335,28.395 297.3335,25.525 C297.3335,22.942 295.2835,21.589 292.2085,21.548 Z M293.1105,40.039 C295.7755,40.039 297.5385,39.178 297.5385,37.128 C297.5385,35.324 296.0625,34.299 293.3155,34.299 L287.9445,34.299 L287.9445,39.998 C289.2975,40.039 291.0605,40.039 293.1105,40.039 Z M316.0825,45.328 C309.9325,45.328 305.6275,41.515 305.6275,34.791 C305.6275,28.19 309.9325,24.295 316.0825,24.295 C322.2735,24.295 326.6195,28.19 326.6195,34.791 C326.6195,41.515 322.2735,45.328 316.0825,45.328 Z M316.1235,39.998 C318.7475,39.998 320.3465,38.071 320.3465,34.791 C320.3465,31.429 318.7475,29.584 316.1235,29.584 C313.4995,29.584 311.9005,31.429 311.9005,34.791 C311.9005,38.071 313.4995,39.998 316.1235,39.998 Z M341.0635,29.584 L337.0045,29.584 L337.0045,37.538 C337.0045,38.932 337.7015,39.793 338.6035,39.793 C339.1775,39.793 339.7105,39.711 340.0385,39.588 C340.3665,39.506 340.5305,39.506 340.8995,39.506 C341.9245,39.506 342.8265,40.326 342.8265,41.966 C342.8265,43.319 341.9245,44.098 341.1455,44.426 C339.9565,44.918 338.7675,45.082 337.3735,45.082 C333.1505,45.082 330.6905,42.827 330.6905,38.44 L330.6905,29.584 L329.0095,29.584 C327.8205,29.584 326.5495,28.805 326.5495,27.206 C326.5495,25.361 327.8205,24.828 329.0095,24.828 L330.6905,24.828 L330.6905,23.147 C330.6905,21.056 332.0435,19.662 333.9295,19.662 C335.8155,19.662 337.0045,21.015 337.0045,23.147 L337.0045,24.828 L341.0635,24.828 C342.5805,24.828 343.5235,25.894 343.5235,27.206 C343.5235,28.477 342.5805,29.584 341.0635,29.584 Z" id="Tap-Release-Bot" fill="#000000"></path>
    </g>
</svg>